<mxfile host="Electron" modified="2024-01-21T16:40:17.938Z" agent="Mozilla/5.0 (Windows NT 10.0; Win64; x64) AppleWebKit/537.36 (KHTML, like Gecko) draw.io/22.1.21 Chrome/120.0.6099.109 Electron/28.1.0 Safari/537.36" etag="GiPb1jxY5BbBfz-l-tXu" version="22.1.21" type="device" pages="5">
  <diagram id="XWbIEzSti7XQCv1TqwHC" name="ReatMetric Core Architecture">
    <mxGraphModel dx="767" dy="993" grid="1" gridSize="10" guides="1" tooltips="1" connect="1" arrows="1" fold="1" page="1" pageScale="1" pageWidth="827" pageHeight="1169" math="0" shadow="0">
      <root>
        <mxCell id="0" />
        <mxCell id="1" parent="0" />
        <mxCell id="COZ0k6jxxaRREzhRSUFR-1" value="&lt;span&gt;API&lt;/span&gt;" style="rounded=0;whiteSpace=wrap;html=1;fontStyle=1;fontSize=16;shadow=1;fillColor=#dae8fc;strokeColor=#6c8ebf;" vertex="1" parent="1">
          <mxGeometry x="70" y="570" width="690" height="60" as="geometry" />
        </mxCell>
        <mxCell id="cfHsk-XKggstakqPH4tc-1" value="Processing" style="rounded=0;whiteSpace=wrap;html=1;fontStyle=1;fontSize=16;shadow=1;fillColor=#dae8fc;strokeColor=#6c8ebf;" vertex="1" parent="1">
          <mxGeometry x="70" y="460" width="130" height="60" as="geometry" />
        </mxCell>
        <mxCell id="cfHsk-XKggstakqPH4tc-2" value="Persist" style="rounded=0;whiteSpace=wrap;html=1;fontStyle=1;fontSize=16;shadow=1;fillColor=#dae8fc;strokeColor=#6c8ebf;" vertex="1" parent="1">
          <mxGeometry x="210" y="460" width="130" height="60" as="geometry" />
        </mxCell>
        <mxCell id="cfHsk-XKggstakqPH4tc-3" value="Remoting" style="rounded=0;whiteSpace=wrap;html=1;fontStyle=1;fontSize=16;shadow=1;fillColor=#dae8fc;strokeColor=#6c8ebf;" vertex="1" parent="1">
          <mxGeometry x="349" y="460" width="130" height="60" as="geometry" />
        </mxCell>
        <mxCell id="cfHsk-XKggstakqPH4tc-4" value="Remoting Connector" style="rounded=0;whiteSpace=wrap;html=1;fontStyle=1;fontSize=16;shadow=1;fillColor=#dae8fc;strokeColor=#6c8ebf;" vertex="1" parent="1">
          <mxGeometry x="490" y="460" width="130" height="60" as="geometry" />
        </mxCell>
        <mxCell id="cfHsk-XKggstakqPH4tc-5" value="Scheduler" style="rounded=0;whiteSpace=wrap;html=1;fontStyle=1;fontSize=16;shadow=1;fillColor=#dae8fc;strokeColor=#6c8ebf;" vertex="1" parent="1">
          <mxGeometry x="630" y="460" width="130" height="60" as="geometry" />
        </mxCell>
        <mxCell id="cfHsk-XKggstakqPH4tc-6" value="&lt;span&gt;Core&lt;/span&gt;" style="rounded=0;whiteSpace=wrap;html=1;fontStyle=1;fontSize=16;shadow=1;fillColor=#dae8fc;strokeColor=#6c8ebf;" vertex="1" parent="1">
          <mxGeometry x="70" y="350" width="690" height="60" as="geometry" />
        </mxCell>
        <mxCell id="cfHsk-XKggstakqPH4tc-7" value="" style="endArrow=classic;html=1;rounded=0;entryX=0.5;entryY=0;entryDx=0;entryDy=0;exitX=0.297;exitY=1;exitDx=0;exitDy=0;exitPerimeter=0;dashed=1;dashPattern=8 8;" edge="1" parent="1" source="cfHsk-XKggstakqPH4tc-6" target="cfHsk-XKggstakqPH4tc-2">
          <mxGeometry width="50" height="50" relative="1" as="geometry">
            <mxPoint x="380" y="460" as="sourcePoint" />
            <mxPoint x="430" y="410" as="targetPoint" />
          </mxGeometry>
        </mxCell>
        <mxCell id="cfHsk-XKggstakqPH4tc-8" value="" style="endArrow=classic;html=1;rounded=0;entryX=0.5;entryY=0;entryDx=0;entryDy=0;exitX=0.297;exitY=1;exitDx=0;exitDy=0;exitPerimeter=0;dashed=1;dashPattern=8 8;" edge="1" parent="1">
          <mxGeometry width="50" height="50" relative="1" as="geometry">
            <mxPoint x="694.5" y="410" as="sourcePoint" />
            <mxPoint x="694.5" y="460" as="targetPoint" />
          </mxGeometry>
        </mxCell>
        <mxCell id="cfHsk-XKggstakqPH4tc-9" value="" style="endArrow=classic;html=1;rounded=0;entryX=0.5;entryY=0;entryDx=0;entryDy=0;exitX=0.297;exitY=1;exitDx=0;exitDy=0;exitPerimeter=0;" edge="1" parent="1">
          <mxGeometry width="50" height="50" relative="1" as="geometry">
            <mxPoint x="554.5" y="520" as="sourcePoint" />
            <mxPoint x="554.5" y="570" as="targetPoint" />
          </mxGeometry>
        </mxCell>
        <mxCell id="cfHsk-XKggstakqPH4tc-10" value="" style="endArrow=classic;html=1;rounded=0;entryX=0.5;entryY=0;entryDx=0;entryDy=0;exitX=0.297;exitY=1;exitDx=0;exitDy=0;exitPerimeter=0;" edge="1" parent="1">
          <mxGeometry width="50" height="50" relative="1" as="geometry">
            <mxPoint x="134.5" y="410" as="sourcePoint" />
            <mxPoint x="134.5" y="460" as="targetPoint" />
          </mxGeometry>
        </mxCell>
        <mxCell id="cfHsk-XKggstakqPH4tc-11" value="" style="endArrow=classic;html=1;rounded=0;entryX=0.5;entryY=0;entryDx=0;entryDy=0;exitX=0.297;exitY=1;exitDx=0;exitDy=0;exitPerimeter=0;" edge="1" parent="1">
          <mxGeometry width="50" height="50" relative="1" as="geometry">
            <mxPoint x="694.5" y="520" as="sourcePoint" />
            <mxPoint x="694.5" y="570" as="targetPoint" />
          </mxGeometry>
        </mxCell>
        <mxCell id="cfHsk-XKggstakqPH4tc-12" value="" style="endArrow=classic;html=1;rounded=0;entryX=0.5;entryY=0;entryDx=0;entryDy=0;exitX=0.297;exitY=1;exitDx=0;exitDy=0;exitPerimeter=0;" edge="1" parent="1">
          <mxGeometry width="50" height="50" relative="1" as="geometry">
            <mxPoint x="414" y="520" as="sourcePoint" />
            <mxPoint x="414" y="570" as="targetPoint" />
          </mxGeometry>
        </mxCell>
        <mxCell id="cfHsk-XKggstakqPH4tc-13" value="" style="endArrow=classic;html=1;rounded=0;entryX=0.5;entryY=0;entryDx=0;entryDy=0;exitX=0.297;exitY=1;exitDx=0;exitDy=0;exitPerimeter=0;" edge="1" parent="1">
          <mxGeometry width="50" height="50" relative="1" as="geometry">
            <mxPoint x="274.5" y="520" as="sourcePoint" />
            <mxPoint x="274.5" y="570" as="targetPoint" />
          </mxGeometry>
        </mxCell>
        <mxCell id="cfHsk-XKggstakqPH4tc-14" value="" style="endArrow=classic;html=1;rounded=0;entryX=0.5;entryY=0;entryDx=0;entryDy=0;exitX=0.297;exitY=1;exitDx=0;exitDy=0;exitPerimeter=0;" edge="1" parent="1">
          <mxGeometry width="50" height="50" relative="1" as="geometry">
            <mxPoint x="134.5" y="520" as="sourcePoint" />
            <mxPoint x="134.5" y="570" as="targetPoint" />
          </mxGeometry>
        </mxCell>
        <mxCell id="cfHsk-XKggstakqPH4tc-15" value="" style="endArrow=classic;html=1;rounded=0;exitX=0;exitY=0.5;exitDx=0;exitDy=0;entryX=0;entryY=0.5;entryDx=0;entryDy=0;" edge="1" parent="1" source="cfHsk-XKggstakqPH4tc-6" target="COZ0k6jxxaRREzhRSUFR-1">
          <mxGeometry width="50" height="50" relative="1" as="geometry">
            <mxPoint x="220" y="460" as="sourcePoint" />
            <mxPoint x="270" y="410" as="targetPoint" />
            <Array as="points">
              <mxPoint x="40" y="380" />
              <mxPoint x="40" y="600" />
            </Array>
          </mxGeometry>
        </mxCell>
        <mxCell id="cfHsk-XKggstakqPH4tc-16" value="" style="endArrow=classic;html=1;rounded=0;dashed=1;dashPattern=8 8;" edge="1" parent="1">
          <mxGeometry width="50" height="50" relative="1" as="geometry">
            <mxPoint x="600" y="680" as="sourcePoint" />
            <mxPoint x="690" y="680" as="targetPoint" />
          </mxGeometry>
        </mxCell>
        <mxCell id="cfHsk-XKggstakqPH4tc-17" value="" style="endArrow=classic;html=1;rounded=0;" edge="1" parent="1">
          <mxGeometry width="50" height="50" relative="1" as="geometry">
            <mxPoint x="600" y="720" as="sourcePoint" />
            <mxPoint x="690" y="720" as="targetPoint" />
          </mxGeometry>
        </mxCell>
        <mxCell id="cfHsk-XKggstakqPH4tc-18" value="Runtime Dependency" style="text;html=1;strokeColor=none;fillColor=none;align=left;verticalAlign=middle;whiteSpace=wrap;rounded=0;" vertex="1" parent="1">
          <mxGeometry x="600" y="650" width="140" height="30" as="geometry" />
        </mxCell>
        <mxCell id="cfHsk-XKggstakqPH4tc-19" value="Compile-Time Dependency" style="text;html=1;strokeColor=none;fillColor=none;align=left;verticalAlign=middle;whiteSpace=wrap;rounded=0;" vertex="1" parent="1">
          <mxGeometry x="600" y="690" width="150" height="30" as="geometry" />
        </mxCell>
      </root>
    </mxGraphModel>
  </diagram>
  <diagram id="3x-kZ_eenebKHxhDJi-M" name="Scheduler - Example">
    <mxGraphModel dx="652" dy="844" grid="1" gridSize="10" guides="1" tooltips="1" connect="1" arrows="1" fold="1" page="1" pageScale="1" pageWidth="827" pageHeight="1169" math="0" shadow="0">
      <root>
        <mxCell id="0" />
        <mxCell id="1" parent="0" />
        <mxCell id="pZ-DNMxPV1xEBQZKG7wP-3" value="" style="group" vertex="1" connectable="0" parent="1">
          <mxGeometry x="40" y="260" width="140" height="60" as="geometry" />
        </mxCell>
        <mxCell id="pZ-DNMxPV1xEBQZKG7wP-1" value="Primary Power Source" style="rounded=1;whiteSpace=wrap;html=1;fontStyle=1;fontSize=16;shadow=1;" vertex="1" parent="pZ-DNMxPV1xEBQZKG7wP-3">
          <mxGeometry width="130" height="60" as="geometry" />
        </mxCell>
        <mxCell id="pZ-DNMxPV1xEBQZKG7wP-2" value="" style="rounded=0;whiteSpace=wrap;html=1;shadow=1;" vertex="1" parent="pZ-DNMxPV1xEBQZKG7wP-3">
          <mxGeometry x="130" y="20" width="10" height="20" as="geometry" />
        </mxCell>
        <mxCell id="pZ-DNMxPV1xEBQZKG7wP-4" value="" style="group" vertex="1" connectable="0" parent="1">
          <mxGeometry x="40" y="360" width="140" height="60" as="geometry" />
        </mxCell>
        <mxCell id="pZ-DNMxPV1xEBQZKG7wP-5" value="Emergency Power Source 1" style="rounded=1;whiteSpace=wrap;html=1;fontStyle=1;fontSize=16;shadow=1;" vertex="1" parent="pZ-DNMxPV1xEBQZKG7wP-4">
          <mxGeometry width="130" height="60" as="geometry" />
        </mxCell>
        <mxCell id="pZ-DNMxPV1xEBQZKG7wP-6" value="" style="rounded=0;whiteSpace=wrap;html=1;shadow=1;" vertex="1" parent="pZ-DNMxPV1xEBQZKG7wP-4">
          <mxGeometry x="130" y="20" width="10" height="20" as="geometry" />
        </mxCell>
        <mxCell id="pZ-DNMxPV1xEBQZKG7wP-7" value="" style="group" vertex="1" connectable="0" parent="1">
          <mxGeometry x="40" y="460" width="140" height="60" as="geometry" />
        </mxCell>
        <mxCell id="pZ-DNMxPV1xEBQZKG7wP-8" value="Emergency&amp;nbsp; Power Source 2" style="rounded=1;whiteSpace=wrap;html=1;fontStyle=1;fontSize=16;shadow=1;" vertex="1" parent="pZ-DNMxPV1xEBQZKG7wP-7">
          <mxGeometry width="130" height="60" as="geometry" />
        </mxCell>
        <mxCell id="pZ-DNMxPV1xEBQZKG7wP-9" value="" style="rounded=0;whiteSpace=wrap;html=1;shadow=1;" vertex="1" parent="pZ-DNMxPV1xEBQZKG7wP-7">
          <mxGeometry x="130" y="20" width="10" height="20" as="geometry" />
        </mxCell>
        <mxCell id="pZ-DNMxPV1xEBQZKG7wP-17" value="" style="group" vertex="1" connectable="0" parent="1">
          <mxGeometry x="170" y="430" width="40" height="20" as="geometry" />
        </mxCell>
        <mxCell id="pZ-DNMxPV1xEBQZKG7wP-12" value="" style="rounded=0;whiteSpace=wrap;html=1;shadow=1;fillColor=#4A4A4A;" vertex="1" parent="pZ-DNMxPV1xEBQZKG7wP-17">
          <mxGeometry y="5" width="40" height="10" as="geometry" />
        </mxCell>
        <mxCell id="pZ-DNMxPV1xEBQZKG7wP-14" value="" style="endArrow=none;html=1;rounded=0;" edge="1" parent="pZ-DNMxPV1xEBQZKG7wP-17">
          <mxGeometry width="50" height="50" relative="1" as="geometry">
            <mxPoint x="20" y="20" as="sourcePoint" />
            <mxPoint x="20" as="targetPoint" />
          </mxGeometry>
        </mxCell>
        <mxCell id="pZ-DNMxPV1xEBQZKG7wP-15" value="" style="endArrow=none;html=1;rounded=0;" edge="1" parent="pZ-DNMxPV1xEBQZKG7wP-17">
          <mxGeometry width="50" height="50" relative="1" as="geometry">
            <mxPoint x="30" y="20" as="sourcePoint" />
            <mxPoint x="30" as="targetPoint" />
          </mxGeometry>
        </mxCell>
        <mxCell id="pZ-DNMxPV1xEBQZKG7wP-16" value="" style="endArrow=none;html=1;rounded=0;" edge="1" parent="pZ-DNMxPV1xEBQZKG7wP-17">
          <mxGeometry width="50" height="50" relative="1" as="geometry">
            <mxPoint x="10" y="20" as="sourcePoint" />
            <mxPoint x="10" as="targetPoint" />
          </mxGeometry>
        </mxCell>
        <mxCell id="pZ-DNMxPV1xEBQZKG7wP-19" value="" style="group" vertex="1" connectable="0" parent="1">
          <mxGeometry x="230" y="330" width="40" height="20" as="geometry" />
        </mxCell>
        <mxCell id="pZ-DNMxPV1xEBQZKG7wP-20" value="" style="rounded=0;whiteSpace=wrap;html=1;shadow=1;fillColor=#4A4A4A;" vertex="1" parent="pZ-DNMxPV1xEBQZKG7wP-19">
          <mxGeometry y="5" width="40" height="10" as="geometry" />
        </mxCell>
        <mxCell id="pZ-DNMxPV1xEBQZKG7wP-21" value="" style="endArrow=none;html=1;rounded=0;" edge="1" parent="pZ-DNMxPV1xEBQZKG7wP-19">
          <mxGeometry width="50" height="50" relative="1" as="geometry">
            <mxPoint x="20" y="20" as="sourcePoint" />
            <mxPoint x="20" as="targetPoint" />
          </mxGeometry>
        </mxCell>
        <mxCell id="pZ-DNMxPV1xEBQZKG7wP-22" value="" style="endArrow=none;html=1;rounded=0;" edge="1" parent="pZ-DNMxPV1xEBQZKG7wP-19">
          <mxGeometry width="50" height="50" relative="1" as="geometry">
            <mxPoint x="30" y="20" as="sourcePoint" />
            <mxPoint x="30" as="targetPoint" />
          </mxGeometry>
        </mxCell>
        <mxCell id="pZ-DNMxPV1xEBQZKG7wP-23" value="" style="endArrow=none;html=1;rounded=0;" edge="1" parent="pZ-DNMxPV1xEBQZKG7wP-19">
          <mxGeometry width="50" height="50" relative="1" as="geometry">
            <mxPoint x="10" y="20" as="sourcePoint" />
            <mxPoint x="10" as="targetPoint" />
          </mxGeometry>
        </mxCell>
        <mxCell id="pZ-DNMxPV1xEBQZKG7wP-24" value="" style="endArrow=none;html=1;rounded=0;entryX=1;entryY=0.5;entryDx=0;entryDy=0;" edge="1" parent="1" target="pZ-DNMxPV1xEBQZKG7wP-2">
          <mxGeometry width="50" height="50" relative="1" as="geometry">
            <mxPoint x="310" y="290" as="sourcePoint" />
            <mxPoint x="200" y="330" as="targetPoint" />
          </mxGeometry>
        </mxCell>
        <mxCell id="pZ-DNMxPV1xEBQZKG7wP-25" value="" style="endArrow=none;html=1;rounded=0;entryX=1;entryY=0.5;entryDx=0;entryDy=0;" edge="1" parent="1">
          <mxGeometry width="50" height="50" relative="1" as="geometry">
            <mxPoint x="250" y="390" as="sourcePoint" />
            <mxPoint x="180" y="389.71" as="targetPoint" />
          </mxGeometry>
        </mxCell>
        <mxCell id="pZ-DNMxPV1xEBQZKG7wP-26" value="" style="endArrow=none;html=1;rounded=0;entryX=1;entryY=0.5;entryDx=0;entryDy=0;" edge="1" parent="1">
          <mxGeometry width="50" height="50" relative="1" as="geometry">
            <mxPoint x="250" y="490" as="sourcePoint" />
            <mxPoint x="180" y="489.71" as="targetPoint" />
          </mxGeometry>
        </mxCell>
        <mxCell id="pZ-DNMxPV1xEBQZKG7wP-29" value="" style="group" vertex="1" connectable="0" parent="1">
          <mxGeometry x="230" y="420" width="40" height="40" as="geometry" />
        </mxCell>
        <mxCell id="pZ-DNMxPV1xEBQZKG7wP-11" value="" style="ellipse;whiteSpace=wrap;html=1;aspect=fixed;shadow=1;" vertex="1" parent="pZ-DNMxPV1xEBQZKG7wP-29">
          <mxGeometry width="40" height="40" as="geometry" />
        </mxCell>
        <mxCell id="pZ-DNMxPV1xEBQZKG7wP-27" value="" style="endArrow=none;html=1;rounded=1;exitX=0;exitY=0.5;exitDx=0;exitDy=0;entryX=0.5;entryY=1;entryDx=0;entryDy=0;curved=0;" edge="1" parent="pZ-DNMxPV1xEBQZKG7wP-29" source="pZ-DNMxPV1xEBQZKG7wP-11" target="pZ-DNMxPV1xEBQZKG7wP-11">
          <mxGeometry width="50" height="50" relative="1" as="geometry">
            <mxPoint x="-40" as="sourcePoint" />
            <mxPoint x="10" y="-50" as="targetPoint" />
            <Array as="points">
              <mxPoint x="20" y="20" />
            </Array>
          </mxGeometry>
        </mxCell>
        <mxCell id="pZ-DNMxPV1xEBQZKG7wP-28" value="" style="endArrow=none;html=1;rounded=1;exitX=0.5;exitY=0;exitDx=0;exitDy=0;entryX=1;entryY=0.5;entryDx=0;entryDy=0;curved=0;" edge="1" parent="pZ-DNMxPV1xEBQZKG7wP-29" source="pZ-DNMxPV1xEBQZKG7wP-11" target="pZ-DNMxPV1xEBQZKG7wP-11">
          <mxGeometry width="50" height="50" relative="1" as="geometry">
            <mxPoint x="10" y="30" as="sourcePoint" />
            <mxPoint x="30" y="50" as="targetPoint" />
            <Array as="points">
              <mxPoint x="20" y="20" />
            </Array>
          </mxGeometry>
        </mxCell>
        <mxCell id="pZ-DNMxPV1xEBQZKG7wP-30" value="" style="group" vertex="1" connectable="0" parent="1">
          <mxGeometry x="290" y="320" width="40" height="40" as="geometry" />
        </mxCell>
        <mxCell id="pZ-DNMxPV1xEBQZKG7wP-31" value="" style="ellipse;whiteSpace=wrap;html=1;aspect=fixed;shadow=1;" vertex="1" parent="pZ-DNMxPV1xEBQZKG7wP-30">
          <mxGeometry width="40" height="40" as="geometry" />
        </mxCell>
        <mxCell id="pZ-DNMxPV1xEBQZKG7wP-32" value="" style="endArrow=none;html=1;rounded=1;exitX=0;exitY=0.5;exitDx=0;exitDy=0;entryX=0.5;entryY=1;entryDx=0;entryDy=0;curved=0;" edge="1" parent="pZ-DNMxPV1xEBQZKG7wP-30" source="pZ-DNMxPV1xEBQZKG7wP-31" target="pZ-DNMxPV1xEBQZKG7wP-31">
          <mxGeometry width="50" height="50" relative="1" as="geometry">
            <mxPoint x="-40" as="sourcePoint" />
            <mxPoint x="10" y="-50" as="targetPoint" />
            <Array as="points">
              <mxPoint x="20" y="20" />
            </Array>
          </mxGeometry>
        </mxCell>
        <mxCell id="pZ-DNMxPV1xEBQZKG7wP-33" value="" style="endArrow=none;html=1;rounded=1;exitX=0.5;exitY=0;exitDx=0;exitDy=0;entryX=1;entryY=0.5;entryDx=0;entryDy=0;curved=0;" edge="1" parent="pZ-DNMxPV1xEBQZKG7wP-30" source="pZ-DNMxPV1xEBQZKG7wP-31" target="pZ-DNMxPV1xEBQZKG7wP-31">
          <mxGeometry width="50" height="50" relative="1" as="geometry">
            <mxPoint x="10" y="30" as="sourcePoint" />
            <mxPoint x="30" y="50" as="targetPoint" />
            <Array as="points">
              <mxPoint x="20" y="20" />
            </Array>
          </mxGeometry>
        </mxCell>
        <mxCell id="pZ-DNMxPV1xEBQZKG7wP-34" value="" style="endArrow=none;html=1;rounded=0;exitX=0.5;exitY=0;exitDx=0;exitDy=0;" edge="1" parent="1" source="pZ-DNMxPV1xEBQZKG7wP-11">
          <mxGeometry width="50" height="50" relative="1" as="geometry">
            <mxPoint x="200" y="410" as="sourcePoint" />
            <mxPoint x="250" y="390" as="targetPoint" />
          </mxGeometry>
        </mxCell>
        <mxCell id="pZ-DNMxPV1xEBQZKG7wP-35" value="" style="endArrow=none;html=1;rounded=0;" edge="1" parent="1">
          <mxGeometry width="50" height="50" relative="1" as="geometry">
            <mxPoint x="250" y="490" as="sourcePoint" />
            <mxPoint x="250" y="460" as="targetPoint" />
          </mxGeometry>
        </mxCell>
        <mxCell id="pZ-DNMxPV1xEBQZKG7wP-36" value="" style="endArrow=none;html=1;rounded=0;entryX=1;entryY=0.5;entryDx=0;entryDy=0;" edge="1" parent="1" target="pZ-DNMxPV1xEBQZKG7wP-12">
          <mxGeometry width="50" height="50" relative="1" as="geometry">
            <mxPoint x="230" y="440" as="sourcePoint" />
            <mxPoint x="270" y="410" as="targetPoint" />
          </mxGeometry>
        </mxCell>
        <mxCell id="pZ-DNMxPV1xEBQZKG7wP-37" value="" style="endArrow=none;html=1;rounded=0;exitX=1;exitY=0.5;exitDx=0;exitDy=0;" edge="1" parent="1" source="pZ-DNMxPV1xEBQZKG7wP-11">
          <mxGeometry width="50" height="50" relative="1" as="geometry">
            <mxPoint x="280" y="450" as="sourcePoint" />
            <mxPoint x="310" y="440" as="targetPoint" />
          </mxGeometry>
        </mxCell>
        <mxCell id="pZ-DNMxPV1xEBQZKG7wP-38" value="" style="endArrow=none;html=1;rounded=0;exitX=0.5;exitY=1;exitDx=0;exitDy=0;" edge="1" parent="1" source="pZ-DNMxPV1xEBQZKG7wP-31">
          <mxGeometry width="50" height="50" relative="1" as="geometry">
            <mxPoint x="290" y="460" as="sourcePoint" />
            <mxPoint x="310" y="440" as="targetPoint" />
          </mxGeometry>
        </mxCell>
        <mxCell id="pZ-DNMxPV1xEBQZKG7wP-39" value="" style="endArrow=none;html=1;rounded=0;exitX=0.5;exitY=0;exitDx=0;exitDy=0;" edge="1" parent="1" source="pZ-DNMxPV1xEBQZKG7wP-31">
          <mxGeometry width="50" height="50" relative="1" as="geometry">
            <mxPoint x="300" y="470" as="sourcePoint" />
            <mxPoint x="310" y="290" as="targetPoint" />
          </mxGeometry>
        </mxCell>
        <mxCell id="pZ-DNMxPV1xEBQZKG7wP-40" value="" style="endArrow=none;html=1;rounded=0;entryX=1;entryY=0.5;entryDx=0;entryDy=0;" edge="1" parent="1">
          <mxGeometry width="50" height="50" relative="1" as="geometry">
            <mxPoint x="290" y="339.83" as="sourcePoint" />
            <mxPoint x="270" y="339.83" as="targetPoint" />
          </mxGeometry>
        </mxCell>
        <mxCell id="pZ-DNMxPV1xEBQZKG7wP-41" value="" style="endArrow=none;html=1;rounded=0;exitX=1;exitY=0.5;exitDx=0;exitDy=0;entryX=0;entryY=0.5;entryDx=0;entryDy=0;" edge="1" parent="1" target="pZ-DNMxPV1xEBQZKG7wP-48">
          <mxGeometry width="50" height="50" relative="1" as="geometry">
            <mxPoint x="330" y="339.71" as="sourcePoint" />
            <mxPoint x="370" y="339.71" as="targetPoint" />
          </mxGeometry>
        </mxCell>
        <mxCell id="pZ-DNMxPV1xEBQZKG7wP-49" value="PPS1.Status" style="text;html=1;strokeColor=none;fillColor=none;align=left;verticalAlign=middle;whiteSpace=wrap;rounded=0;" vertex="1" parent="1">
          <mxGeometry x="40" y="230" width="60" height="30" as="geometry" />
        </mxCell>
        <mxCell id="pZ-DNMxPV1xEBQZKG7wP-50" value="EPS1.Status" style="text;html=1;strokeColor=none;fillColor=none;align=left;verticalAlign=middle;whiteSpace=wrap;rounded=0;" vertex="1" parent="1">
          <mxGeometry x="40" y="330" width="60" height="30" as="geometry" />
        </mxCell>
        <mxCell id="pZ-DNMxPV1xEBQZKG7wP-51" value="EPS2.Status" style="text;html=1;strokeColor=none;fillColor=none;align=left;verticalAlign=middle;whiteSpace=wrap;rounded=0;" vertex="1" parent="1">
          <mxGeometry x="40" y="430" width="60" height="30" as="geometry" />
        </mxCell>
        <mxCell id="pZ-DNMxPV1xEBQZKG7wP-52" value="PPS1.Output" style="text;html=1;strokeColor=none;fillColor=none;align=left;verticalAlign=middle;whiteSpace=wrap;rounded=0;" vertex="1" parent="1">
          <mxGeometry x="170" y="250" width="60" height="30" as="geometry" />
        </mxCell>
        <mxCell id="pZ-DNMxPV1xEBQZKG7wP-53" value="EPS1.Output" style="text;html=1;strokeColor=none;fillColor=none;align=left;verticalAlign=middle;whiteSpace=wrap;rounded=0;" vertex="1" parent="1">
          <mxGeometry x="170" y="350" width="60" height="30" as="geometry" />
        </mxCell>
        <mxCell id="pZ-DNMxPV1xEBQZKG7wP-54" value="EPS2.Output" style="text;html=1;strokeColor=none;fillColor=none;align=left;verticalAlign=middle;whiteSpace=wrap;rounded=0;" vertex="1" parent="1">
          <mxGeometry x="170" y="500" width="60" height="30" as="geometry" />
        </mxCell>
        <mxCell id="pZ-DNMxPV1xEBQZKG7wP-55" value="Switch1.Position" style="text;html=1;strokeColor=none;fillColor=none;align=left;verticalAlign=middle;whiteSpace=wrap;rounded=0;" vertex="1" parent="1">
          <mxGeometry x="260" y="450" width="60" height="30" as="geometry" />
        </mxCell>
        <mxCell id="pZ-DNMxPV1xEBQZKG7wP-56" value="Switch2.Position" style="text;html=1;strokeColor=none;fillColor=none;align=left;verticalAlign=middle;whiteSpace=wrap;rounded=0;" vertex="1" parent="1">
          <mxGeometry x="320" y="350" width="60" height="30" as="geometry" />
        </mxCell>
        <mxCell id="pZ-DNMxPV1xEBQZKG7wP-48" value="" style="rounded=0;whiteSpace=wrap;html=1;shadow=1;" vertex="1" parent="1">
          <mxGeometry x="410" y="330" width="10" height="20" as="geometry" />
        </mxCell>
        <mxCell id="pZ-DNMxPV1xEBQZKG7wP-43" value="Device" style="rounded=1;whiteSpace=wrap;html=1;fontStyle=1;fontSize=16;shadow=1;" vertex="1" parent="1">
          <mxGeometry x="420" y="310" width="90" height="60" as="geometry" />
        </mxCell>
      </root>
    </mxGraphModel>
  </diagram>
  <diagram name="Spacecraft Driver - Telemetry" id="90a13364-a465-7bf4-72fc-28e22215d7a0">
    <mxGraphModel dx="652" dy="844" grid="1" gridSize="10" guides="1" tooltips="1" connect="1" arrows="1" fold="1" page="1" pageScale="1.5" pageWidth="1169" pageHeight="826" background="none" math="0" shadow="0">
      <root>
        <mxCell id="0" style=";html=1;" />
        <mxCell id="1" style=";html=1;" parent="0" />
        <mxCell id="hDWPIja1anX5ImKUvwHM-7" value="&lt;b style=&quot;font-size: 16px;&quot;&gt;&amp;nbsp; &amp;nbsp;ReatMetric &lt;br&gt;&amp;nbsp; &amp;nbsp;Core&lt;/b&gt;" style="rounded=1;whiteSpace=wrap;html=1;align=left;labelPosition=center;verticalLabelPosition=middle;verticalAlign=top;arcSize=7;fontSize=16;shadow=1;" parent="1" vertex="1">
          <mxGeometry x="430" y="110" width="820" height="200" as="geometry" />
        </mxCell>
        <mxCell id="hDWPIja1anX5ImKUvwHM-8" value="Archive" style="rounded=0;whiteSpace=wrap;html=1;fontStyle=1;fontSize=16;shadow=1;fillColor=#dae8fc;strokeColor=#6c8ebf;" parent="1" vertex="1">
          <mxGeometry x="730" y="130" width="220" height="60" as="geometry" />
        </mxCell>
        <mxCell id="hDWPIja1anX5ImKUvwHM-10" value="Processing Model" style="rounded=0;whiteSpace=wrap;html=1;fontStyle=1;fontSize=16;shadow=1;fillColor=#dae8fc;strokeColor=#6c8ebf;" parent="1" vertex="1">
          <mxGeometry x="470" y="220" width="220" height="60" as="geometry" />
        </mxCell>
        <mxCell id="hDWPIja1anX5ImKUvwHM-11" value="Raw Data Broker" style="rounded=0;whiteSpace=wrap;html=1;fontStyle=1;fontSize=16;shadow=1;fillColor=#dae8fc;strokeColor=#6c8ebf;" parent="1" vertex="1">
          <mxGeometry x="910" y="220" width="220" height="60" as="geometry" />
        </mxCell>
        <mxCell id="hDWPIja1anX5ImKUvwHM-12" value="&lt;b style=&quot;font-size: 16px;&quot;&gt;&amp;nbsp; &amp;nbsp;Spacecraft &lt;br&gt;&amp;nbsp; &amp;nbsp;Driver&lt;/b&gt;" style="rounded=1;whiteSpace=wrap;html=1;align=left;labelPosition=center;verticalLabelPosition=middle;verticalAlign=top;arcSize=4;fontSize=16;shadow=1;" parent="1" vertex="1">
          <mxGeometry x="430" y="320" width="820" height="340" as="geometry" />
        </mxCell>
        <mxCell id="hDWPIja1anX5ImKUvwHM-13" value="TM Data Link Processor" style="rounded=0;whiteSpace=wrap;html=1;fontStyle=1;fontSize=16;shadow=1;fillColor=#dae8fc;strokeColor=#6c8ebf;" parent="1" vertex="1">
          <mxGeometry x="730" y="360" width="220" height="60" as="geometry" />
        </mxCell>
        <mxCell id="hDWPIja1anX5ImKUvwHM-14" value="TM Packet Processor" style="rounded=0;whiteSpace=wrap;html=1;fontStyle=1;fontSize=16;shadow=1;fillColor=#dae8fc;strokeColor=#6c8ebf;" parent="1" vertex="1">
          <mxGeometry x="730" y="460" width="220" height="60" as="geometry" />
        </mxCell>
        <mxCell id="hDWPIja1anX5ImKUvwHM-22" style="edgeStyle=orthogonalEdgeStyle;rounded=0;orthogonalLoop=1;jettySize=auto;html=1;exitX=0.75;exitY=0;exitDx=0;exitDy=0;entryX=1;entryY=0.5;entryDx=0;entryDy=0;" parent="1" source="hDWPIja1anX5ImKUvwHM-15" target="hDWPIja1anX5ImKUvwHM-11" edge="1">
          <mxGeometry relative="1" as="geometry" />
        </mxCell>
        <mxCell id="hDWPIja1anX5ImKUvwHM-15" value="SLE Connector (RAF)" style="rounded=0;whiteSpace=wrap;html=1;fontStyle=1;fontSize=16;shadow=1;fillColor=#dae8fc;strokeColor=#6c8ebf;" parent="1" vertex="1">
          <mxGeometry x="1010" y="360" width="220" height="60" as="geometry" />
        </mxCell>
        <mxCell id="hDWPIja1anX5ImKUvwHM-16" value="&lt;i&gt;Time Correlation&lt;/i&gt;" style="rounded=0;whiteSpace=wrap;html=1;fontStyle=1;fontSize=16;shadow=1;fillColor=#dae8fc;strokeColor=#6c8ebf;" parent="1" vertex="1">
          <mxGeometry x="1010" y="460" width="220" height="60" as="geometry" />
        </mxCell>
        <mxCell id="hDWPIja1anX5ImKUvwHM-29" value="" style="edgeStyle=orthogonalEdgeStyle;rounded=0;orthogonalLoop=1;jettySize=auto;html=1;entryX=0.104;entryY=0.001;entryDx=0;entryDy=0;exitX=0.379;exitY=1.001;exitDx=0;exitDy=0;entryPerimeter=0;exitPerimeter=0;" parent="1" source="hDWPIja1anX5ImKUvwHM-14" target="hDWPIja1anX5ImKUvwHM-17" edge="1">
          <mxGeometry relative="1" as="geometry">
            <mxPoint x="1320" y="580" as="sourcePoint" />
          </mxGeometry>
        </mxCell>
        <mxCell id="hDWPIja1anX5ImKUvwHM-17" value="Service Broker" style="rounded=0;whiteSpace=wrap;html=1;fontStyle=1;fontSize=16;shadow=1;fillColor=#dae8fc;strokeColor=#6c8ebf;" parent="1" vertex="1">
          <mxGeometry x="790" y="560" width="220" height="60" as="geometry" />
        </mxCell>
        <mxCell id="hDWPIja1anX5ImKUvwHM-18" value="&lt;i&gt;Service&lt;/i&gt;" style="rounded=0;whiteSpace=wrap;html=1;fontStyle=1;fontSize=16;shadow=1;fillColor=#dae8fc;strokeColor=#6c8ebf;" parent="1" vertex="1">
          <mxGeometry x="450" y="560" width="220" height="60" as="geometry" />
        </mxCell>
        <mxCell id="hDWPIja1anX5ImKUvwHM-19" value="" style="endArrow=classic;html=1;rounded=0;exitX=0.5;exitY=0;exitDx=0;exitDy=0;entryX=0;entryY=0.5;entryDx=0;entryDy=0;" parent="1" source="hDWPIja1anX5ImKUvwHM-10" target="hDWPIja1anX5ImKUvwHM-8" edge="1">
          <mxGeometry width="50" height="50" relative="1" as="geometry">
            <mxPoint x="830" y="410" as="sourcePoint" />
            <mxPoint x="880" y="360" as="targetPoint" />
            <Array as="points">
              <mxPoint x="580" y="160" />
            </Array>
          </mxGeometry>
        </mxCell>
        <mxCell id="hDWPIja1anX5ImKUvwHM-20" value="" style="endArrow=classic;html=1;rounded=0;exitX=0.5;exitY=0;exitDx=0;exitDy=0;entryX=1;entryY=0.5;entryDx=0;entryDy=0;" parent="1" source="hDWPIja1anX5ImKUvwHM-11" target="hDWPIja1anX5ImKUvwHM-8" edge="1">
          <mxGeometry width="50" height="50" relative="1" as="geometry">
            <mxPoint x="670" y="230" as="sourcePoint" />
            <mxPoint x="740" y="170" as="targetPoint" />
            <Array as="points">
              <mxPoint x="1020" y="160" />
            </Array>
          </mxGeometry>
        </mxCell>
        <mxCell id="hDWPIja1anX5ImKUvwHM-21" value="" style="endArrow=classic;html=1;rounded=0;exitX=0;exitY=0.75;exitDx=0;exitDy=0;entryX=0.5;entryY=0;entryDx=0;entryDy=0;" parent="1" source="hDWPIja1anX5ImKUvwHM-11" target="hDWPIja1anX5ImKUvwHM-13" edge="1">
          <mxGeometry width="50" height="50" relative="1" as="geometry">
            <mxPoint x="830" y="410" as="sourcePoint" />
            <mxPoint x="380" y="470" as="targetPoint" />
            <Array as="points">
              <mxPoint x="840" y="265" />
            </Array>
          </mxGeometry>
        </mxCell>
        <mxCell id="hDWPIja1anX5ImKUvwHM-23" value="" style="endArrow=classic;html=1;rounded=0;exitX=0.345;exitY=1.017;exitDx=0;exitDy=0;entryX=0;entryY=0.5;entryDx=0;entryDy=0;exitPerimeter=0;" parent="1" source="hDWPIja1anX5ImKUvwHM-11" target="hDWPIja1anX5ImKUvwHM-16" edge="1">
          <mxGeometry width="50" height="50" relative="1" as="geometry">
            <mxPoint x="920" y="260" as="sourcePoint" />
            <mxPoint x="850" y="370" as="targetPoint" />
            <Array as="points">
              <mxPoint x="986" y="490" />
            </Array>
          </mxGeometry>
        </mxCell>
        <mxCell id="hDWPIja1anX5ImKUvwHM-24" value="" style="endArrow=classic;html=1;rounded=0;exitX=0;exitY=0.75;exitDx=0;exitDy=0;entryX=1;entryY=0.75;entryDx=0;entryDy=0;" parent="1" source="hDWPIja1anX5ImKUvwHM-16" target="hDWPIja1anX5ImKUvwHM-14" edge="1">
          <mxGeometry width="50" height="50" relative="1" as="geometry">
            <mxPoint x="830" y="410" as="sourcePoint" />
            <mxPoint x="880" y="360" as="targetPoint" />
          </mxGeometry>
        </mxCell>
        <mxCell id="hDWPIja1anX5ImKUvwHM-25" value="" style="endArrow=classic;html=1;rounded=0;entryX=0.105;entryY=0.99;entryDx=0;entryDy=0;entryPerimeter=0;" parent="1" target="hDWPIja1anX5ImKUvwHM-11" edge="1">
          <mxGeometry width="50" height="50" relative="1" as="geometry">
            <mxPoint x="933" y="360" as="sourcePoint" />
            <mxPoint x="880" y="360" as="targetPoint" />
          </mxGeometry>
        </mxCell>
        <mxCell id="hDWPIja1anX5ImKUvwHM-26" value="" style="endArrow=classic;html=1;rounded=0;exitX=0;exitY=0.25;exitDx=0;exitDy=0;entryX=0;entryY=0.25;entryDx=0;entryDy=0;" parent="1" source="hDWPIja1anX5ImKUvwHM-11" target="hDWPIja1anX5ImKUvwHM-14" edge="1">
          <mxGeometry width="50" height="50" relative="1" as="geometry">
            <mxPoint x="920" y="275" as="sourcePoint" />
            <mxPoint x="850" y="370" as="targetPoint" />
            <Array as="points">
              <mxPoint x="710" y="235" />
              <mxPoint x="710" y="475" />
            </Array>
          </mxGeometry>
        </mxCell>
        <mxCell id="hDWPIja1anX5ImKUvwHM-28" value="" style="endArrow=classic;html=1;rounded=0;exitX=0;exitY=0.75;exitDx=0;exitDy=0;entryX=0.75;entryY=1;entryDx=0;entryDy=0;" parent="1" source="hDWPIja1anX5ImKUvwHM-14" target="hDWPIja1anX5ImKUvwHM-10" edge="1">
          <mxGeometry width="50" height="50" relative="1" as="geometry">
            <mxPoint x="850" y="530" as="sourcePoint" />
            <mxPoint x="850" y="570" as="targetPoint" />
            <Array as="points">
              <mxPoint x="635" y="505" />
            </Array>
          </mxGeometry>
        </mxCell>
        <mxCell id="hDWPIja1anX5ImKUvwHM-30" value="" style="endArrow=classic;html=1;rounded=0;exitX=0;exitY=0.5;exitDx=0;exitDy=0;entryX=1;entryY=0.5;entryDx=0;entryDy=0;" parent="1" source="hDWPIja1anX5ImKUvwHM-17" target="hDWPIja1anX5ImKUvwHM-18" edge="1">
          <mxGeometry width="50" height="50" relative="1" as="geometry">
            <mxPoint x="1020" y="515" as="sourcePoint" />
            <mxPoint x="960" y="515" as="targetPoint" />
          </mxGeometry>
        </mxCell>
        <mxCell id="hDWPIja1anX5ImKUvwHM-31" value="" style="endArrow=classic;html=1;rounded=0;exitX=0.589;exitY=-0.01;exitDx=0;exitDy=0;entryX=0.5;entryY=1;entryDx=0;entryDy=0;exitPerimeter=0;" parent="1" source="hDWPIja1anX5ImKUvwHM-18" target="hDWPIja1anX5ImKUvwHM-10" edge="1">
          <mxGeometry width="50" height="50" relative="1" as="geometry">
            <mxPoint x="740" y="600" as="sourcePoint" />
            <mxPoint x="680" y="600" as="targetPoint" />
          </mxGeometry>
        </mxCell>
        <mxCell id="hDWPIja1anX5ImKUvwHM-33" value="" style="ellipse;whiteSpace=wrap;html=1;aspect=fixed;fillColor=#000000;" parent="1" vertex="1">
          <mxGeometry x="1280" y="375" width="30" height="30" as="geometry" />
        </mxCell>
        <mxCell id="hDWPIja1anX5ImKUvwHM-34" value="" style="endArrow=classic;html=1;rounded=0;entryX=1;entryY=0.5;entryDx=0;entryDy=0;strokeColor=#000000;fillColor=#000000;strokeWidth=4;" parent="1" source="hDWPIja1anX5ImKUvwHM-33" target="hDWPIja1anX5ImKUvwHM-15" edge="1">
          <mxGeometry width="50" height="50" relative="1" as="geometry">
            <mxPoint x="830" y="410" as="sourcePoint" />
            <mxPoint x="880" y="360" as="targetPoint" />
          </mxGeometry>
        </mxCell>
        <mxCell id="hDWPIja1anX5ImKUvwHM-35" value="Transfer Frame" style="text;html=1;strokeColor=none;fillColor=none;align=center;verticalAlign=middle;whiteSpace=wrap;rounded=0;" parent="1" vertex="1">
          <mxGeometry x="1265" y="410" width="60" height="30" as="geometry" />
        </mxCell>
        <mxCell id="hDWPIja1anX5ImKUvwHM-36" value="Transfer Frame" style="text;html=1;strokeColor=none;fillColor=none;align=left;verticalAlign=middle;whiteSpace=wrap;rounded=0;" parent="1" vertex="1">
          <mxGeometry x="1140" y="220" width="60" height="30" as="geometry" />
        </mxCell>
        <mxCell id="hDWPIja1anX5ImKUvwHM-37" value="Transfer Frame VC0" style="text;html=1;strokeColor=none;fillColor=none;align=left;verticalAlign=middle;whiteSpace=wrap;rounded=0;" parent="1" vertex="1">
          <mxGeometry x="990" y="430" width="80" height="30" as="geometry" />
        </mxCell>
        <mxCell id="hDWPIja1anX5ImKUvwHM-38" value="Transfer Frame" style="text;html=1;strokeColor=none;fillColor=none;align=left;verticalAlign=middle;whiteSpace=wrap;rounded=0;" parent="1" vertex="1">
          <mxGeometry x="845.5" y="330" width="60" height="30" as="geometry" />
        </mxCell>
        <mxCell id="hDWPIja1anX5ImKUvwHM-39" value="Space Packet" style="text;html=1;strokeColor=none;fillColor=none;align=center;verticalAlign=middle;whiteSpace=wrap;rounded=0;" parent="1" vertex="1">
          <mxGeometry x="877" y="280" width="60" height="30" as="geometry" />
        </mxCell>
        <mxCell id="hDWPIja1anX5ImKUvwHM-40" value="Space Packet" style="text;html=1;strokeColor=none;fillColor=none;align=left;verticalAlign=middle;whiteSpace=wrap;rounded=0;" parent="1" vertex="1">
          <mxGeometry x="670" y="440" width="60" height="30" as="geometry" />
        </mxCell>
        <mxCell id="hDWPIja1anX5ImKUvwHM-41" value="OBT/UTC" style="text;html=1;strokeColor=none;fillColor=none;align=center;verticalAlign=middle;whiteSpace=wrap;rounded=0;" parent="1" vertex="1">
          <mxGeometry x="952" y="502" width="60" height="30" as="geometry" />
        </mxCell>
        <mxCell id="hDWPIja1anX5ImKUvwHM-42" value="Space Packet + Decoded Params" style="text;html=1;strokeColor=none;fillColor=none;align=left;verticalAlign=middle;whiteSpace=wrap;rounded=0;" parent="1" vertex="1">
          <mxGeometry x="819" y="530" width="123" height="30" as="geometry" />
        </mxCell>
        <mxCell id="hDWPIja1anX5ImKUvwHM-43" value="Space Packet + Decoded Params" style="text;html=1;strokeColor=none;fillColor=none;align=left;verticalAlign=middle;whiteSpace=wrap;rounded=0;" parent="1" vertex="1">
          <mxGeometry x="681" y="591" width="123" height="30" as="geometry" />
        </mxCell>
        <mxCell id="hDWPIja1anX5ImKUvwHM-44" value="Parameter Samples" style="text;html=1;strokeColor=none;fillColor=none;align=left;verticalAlign=middle;whiteSpace=wrap;rounded=0;" parent="1" vertex="1">
          <mxGeometry x="620" y="500" width="123" height="30" as="geometry" />
        </mxCell>
        <mxCell id="hDWPIja1anX5ImKUvwHM-46" value="Parameter samples&lt;br&gt;Events&lt;br&gt;TC verification reports" style="text;html=1;strokeColor=none;fillColor=none;align=right;verticalAlign=middle;whiteSpace=wrap;rounded=0;" parent="1" vertex="1">
          <mxGeometry x="450" y="520" width="123" height="30" as="geometry" />
        </mxCell>
      </root>
    </mxGraphModel>
  </diagram>
  <diagram id="XXfsQgG3S9FHZ0_Q3dfW" name="Spacecraft Driver - Telecommand (basic)">
    <mxGraphModel dx="1434" dy="844" grid="1" gridSize="10" guides="1" tooltips="1" connect="1" arrows="1" fold="1" page="1" pageScale="1" pageWidth="850" pageHeight="1100" math="0" shadow="0">
      <root>
        <mxCell id="0" />
        <mxCell id="1" parent="0" />
        <mxCell id="hiG2ZZ0SuF2o6-wS-57L-1" value="&lt;b style=&quot;font-size: 16px;&quot;&gt;&amp;nbsp; &amp;nbsp;ReatMetric &lt;br&gt;&amp;nbsp; &amp;nbsp;Core&lt;/b&gt;" style="rounded=1;whiteSpace=wrap;html=1;align=left;labelPosition=center;verticalLabelPosition=middle;verticalAlign=top;arcSize=7;fontSize=16;shadow=1;" parent="1" vertex="1">
          <mxGeometry x="430" y="110" width="820" height="200" as="geometry" />
        </mxCell>
        <mxCell id="hiG2ZZ0SuF2o6-wS-57L-2" value="Archive" style="rounded=0;whiteSpace=wrap;html=1;fontStyle=1;fontSize=16;shadow=1;fillColor=#dae8fc;strokeColor=#6c8ebf;" parent="1" vertex="1">
          <mxGeometry x="730" y="130" width="220" height="60" as="geometry" />
        </mxCell>
        <mxCell id="hiG2ZZ0SuF2o6-wS-57L-3" value="Processing Model" style="rounded=0;whiteSpace=wrap;html=1;fontStyle=1;fontSize=16;shadow=1;fillColor=#dae8fc;strokeColor=#6c8ebf;" parent="1" vertex="1">
          <mxGeometry x="470" y="220" width="220" height="60" as="geometry" />
        </mxCell>
        <mxCell id="hiG2ZZ0SuF2o6-wS-57L-4" value="Raw Data Broker" style="rounded=0;whiteSpace=wrap;html=1;fontStyle=1;fontSize=16;shadow=1;fillColor=#dae8fc;strokeColor=#6c8ebf;" parent="1" vertex="1">
          <mxGeometry x="910" y="220" width="220" height="60" as="geometry" />
        </mxCell>
        <mxCell id="hiG2ZZ0SuF2o6-wS-57L-5" value="&lt;b style=&quot;font-size: 16px;&quot;&gt;&amp;nbsp; &amp;nbsp;Spacecraft &lt;br&gt;&amp;nbsp; &amp;nbsp;Driver&lt;/b&gt;" style="rounded=1;whiteSpace=wrap;html=1;align=left;labelPosition=center;verticalLabelPosition=middle;verticalAlign=top;arcSize=4;fontSize=16;shadow=1;" parent="1" vertex="1">
          <mxGeometry x="430" y="320" width="820" height="340" as="geometry" />
        </mxCell>
        <mxCell id="hiG2ZZ0SuF2o6-wS-57L-6" value="TC Packet Processor" style="rounded=0;whiteSpace=wrap;html=1;fontStyle=1;fontSize=16;shadow=1;fillColor=#dae8fc;strokeColor=#6c8ebf;" parent="1" vertex="1">
          <mxGeometry x="730" y="360" width="220" height="60" as="geometry" />
        </mxCell>
        <mxCell id="hiG2ZZ0SuF2o6-wS-57L-7" value="TC Data Link Processor" style="rounded=0;whiteSpace=wrap;html=1;fontStyle=1;fontSize=16;shadow=1;fillColor=#dae8fc;strokeColor=#6c8ebf;" parent="1" vertex="1">
          <mxGeometry x="890" y="470" width="220" height="60" as="geometry" />
        </mxCell>
        <mxCell id="hiG2ZZ0SuF2o6-wS-57L-9" value="SLE Connector (CLTU)" style="rounded=0;whiteSpace=wrap;html=1;fontStyle=1;fontSize=16;shadow=1;fillColor=#dae8fc;strokeColor=#6c8ebf;" parent="1" vertex="1">
          <mxGeometry x="960" y="570" width="220" height="60" as="geometry" />
        </mxCell>
        <mxCell id="hiG2ZZ0SuF2o6-wS-57L-12" value="Service Broker" style="rounded=0;whiteSpace=wrap;html=1;fontStyle=1;fontSize=16;shadow=1;fillColor=#dae8fc;strokeColor=#6c8ebf;" parent="1" vertex="1">
          <mxGeometry x="650" y="470" width="220" height="60" as="geometry" />
        </mxCell>
        <mxCell id="hiG2ZZ0SuF2o6-wS-57L-13" value="&lt;i&gt;Command Verification&lt;/i&gt;" style="rounded=0;whiteSpace=wrap;html=1;fontStyle=1;fontSize=16;shadow=1;fillColor=#dae8fc;strokeColor=#6c8ebf;" parent="1" vertex="1">
          <mxGeometry x="440" y="400" width="220" height="60" as="geometry" />
        </mxCell>
        <mxCell id="hiG2ZZ0SuF2o6-wS-57L-14" value="" style="endArrow=classic;html=1;rounded=0;exitX=0.5;exitY=0;exitDx=0;exitDy=0;entryX=0;entryY=0.5;entryDx=0;entryDy=0;" parent="1" source="hiG2ZZ0SuF2o6-wS-57L-3" target="hiG2ZZ0SuF2o6-wS-57L-2" edge="1">
          <mxGeometry width="50" height="50" relative="1" as="geometry">
            <mxPoint x="830" y="410" as="sourcePoint" />
            <mxPoint x="880" y="360" as="targetPoint" />
            <Array as="points">
              <mxPoint x="580" y="160" />
            </Array>
          </mxGeometry>
        </mxCell>
        <mxCell id="hiG2ZZ0SuF2o6-wS-57L-15" value="" style="endArrow=classic;html=1;rounded=0;exitX=0.5;exitY=0;exitDx=0;exitDy=0;entryX=1;entryY=0.5;entryDx=0;entryDy=0;" parent="1" source="hiG2ZZ0SuF2o6-wS-57L-4" target="hiG2ZZ0SuF2o6-wS-57L-2" edge="1">
          <mxGeometry width="50" height="50" relative="1" as="geometry">
            <mxPoint x="670" y="230" as="sourcePoint" />
            <mxPoint x="740" y="170" as="targetPoint" />
            <Array as="points">
              <mxPoint x="1020" y="160" />
            </Array>
          </mxGeometry>
        </mxCell>
        <mxCell id="hiG2ZZ0SuF2o6-wS-57L-19" value="" style="endArrow=classic;html=1;rounded=0;entryX=0.105;entryY=0.99;entryDx=0;entryDy=0;entryPerimeter=0;" parent="1" target="hiG2ZZ0SuF2o6-wS-57L-4" edge="1">
          <mxGeometry width="50" height="50" relative="1" as="geometry">
            <mxPoint x="933" y="360" as="sourcePoint" />
            <mxPoint x="880" y="360" as="targetPoint" />
          </mxGeometry>
        </mxCell>
        <mxCell id="hiG2ZZ0SuF2o6-wS-57L-24" value="" style="ellipse;whiteSpace=wrap;html=1;aspect=fixed;fillColor=#000000;" parent="1" vertex="1">
          <mxGeometry x="1280" y="585" width="30" height="30" as="geometry" />
        </mxCell>
        <mxCell id="hiG2ZZ0SuF2o6-wS-57L-25" value="" style="endArrow=classic;html=1;rounded=0;strokeColor=#000000;fillColor=#000000;strokeWidth=4;exitX=1;exitY=0.5;exitDx=0;exitDy=0;entryX=0;entryY=0.5;entryDx=0;entryDy=0;" parent="1" source="hiG2ZZ0SuF2o6-wS-57L-9" target="hiG2ZZ0SuF2o6-wS-57L-24" edge="1">
          <mxGeometry width="50" height="50" relative="1" as="geometry">
            <mxPoint x="830" y="410" as="sourcePoint" />
            <mxPoint x="1300" y="510" as="targetPoint" />
          </mxGeometry>
        </mxCell>
        <mxCell id="hiG2ZZ0SuF2o6-wS-57L-28" value="Transfer Frame (CLCW)" style="text;html=1;strokeColor=none;fillColor=none;align=left;verticalAlign=middle;whiteSpace=wrap;rounded=0;" parent="1" vertex="1">
          <mxGeometry x="970" y="440" width="90" height="30" as="geometry" />
        </mxCell>
        <mxCell id="hiG2ZZ0SuF2o6-wS-57L-30" value="Encoded TC" style="text;html=1;strokeColor=none;fillColor=none;align=center;verticalAlign=middle;whiteSpace=wrap;rounded=0;" parent="1" vertex="1">
          <mxGeometry x="853" y="330" width="77" height="30" as="geometry" />
        </mxCell>
        <mxCell id="hiG2ZZ0SuF2o6-wS-57L-31" value="Activity Invocation" style="text;html=1;strokeColor=none;fillColor=none;align=left;verticalAlign=middle;whiteSpace=wrap;rounded=0;" parent="1" vertex="1">
          <mxGeometry x="660" y="360" width="60" height="30" as="geometry" />
        </mxCell>
        <mxCell id="8Lsn2s09rfW-6HnAJDic-3" value="" style="ellipse;whiteSpace=wrap;html=1;aspect=fixed;fillColor=#000000;" parent="1" vertex="1">
          <mxGeometry x="380" y="235" width="30" height="30" as="geometry" />
        </mxCell>
        <mxCell id="8Lsn2s09rfW-6HnAJDic-4" value="" style="endArrow=classic;html=1;rounded=0;entryX=0;entryY=0.5;entryDx=0;entryDy=0;strokeColor=#000000;fillColor=#000000;strokeWidth=4;" parent="1" source="8Lsn2s09rfW-6HnAJDic-3" target="hiG2ZZ0SuF2o6-wS-57L-3" edge="1">
          <mxGeometry width="50" height="50" relative="1" as="geometry">
            <mxPoint x="-70" y="265" as="sourcePoint" />
            <mxPoint x="330" y="245" as="targetPoint" />
          </mxGeometry>
        </mxCell>
        <mxCell id="8Lsn2s09rfW-6HnAJDic-5" value="" style="endArrow=classic;html=1;rounded=0;exitX=0.75;exitY=1;exitDx=0;exitDy=0;entryX=0;entryY=0.5;entryDx=0;entryDy=0;" parent="1" source="hiG2ZZ0SuF2o6-wS-57L-3" target="hiG2ZZ0SuF2o6-wS-57L-6" edge="1">
          <mxGeometry width="50" height="50" relative="1" as="geometry">
            <mxPoint x="590" y="230" as="sourcePoint" />
            <mxPoint x="740" y="170" as="targetPoint" />
            <Array as="points">
              <mxPoint x="635" y="390" />
            </Array>
          </mxGeometry>
        </mxCell>
        <mxCell id="8Lsn2s09rfW-6HnAJDic-6" value="Activity Invocation" style="text;html=1;strokeColor=none;fillColor=none;align=left;verticalAlign=middle;whiteSpace=wrap;rounded=0;" parent="1" vertex="1">
          <mxGeometry x="365" y="270" width="60" height="30" as="geometry" />
        </mxCell>
        <mxCell id="8Lsn2s09rfW-6HnAJDic-7" value="" style="endArrow=classic;html=1;rounded=0;exitX=0.138;exitY=0.995;exitDx=0;exitDy=0;exitPerimeter=0;" parent="1" source="hiG2ZZ0SuF2o6-wS-57L-6" target="hiG2ZZ0SuF2o6-wS-57L-12" edge="1">
          <mxGeometry width="50" height="50" relative="1" as="geometry">
            <mxPoint x="740" y="510" as="sourcePoint" />
            <mxPoint x="680" y="600" as="targetPoint" />
          </mxGeometry>
        </mxCell>
        <mxCell id="8Lsn2s09rfW-6HnAJDic-8" value="Encoded TC" style="text;html=1;strokeColor=none;fillColor=none;align=center;verticalAlign=middle;whiteSpace=wrap;rounded=0;" parent="1" vertex="1">
          <mxGeometry x="680" y="440" width="77" height="30" as="geometry" />
        </mxCell>
        <mxCell id="8Lsn2s09rfW-6HnAJDic-9" value="" style="endArrow=classic;html=1;rounded=0;entryX=0.75;entryY=1;entryDx=0;entryDy=0;" parent="1" target="hiG2ZZ0SuF2o6-wS-57L-13" edge="1">
          <mxGeometry width="50" height="50" relative="1" as="geometry">
            <mxPoint x="650" y="490" as="sourcePoint" />
            <mxPoint x="740" y="400" as="targetPoint" />
            <Array as="points">
              <mxPoint x="605" y="490" />
            </Array>
          </mxGeometry>
        </mxCell>
        <mxCell id="8Lsn2s09rfW-6HnAJDic-10" value="Encoded TC" style="text;html=1;strokeColor=none;fillColor=none;align=center;verticalAlign=middle;whiteSpace=wrap;rounded=0;" parent="1" vertex="1">
          <mxGeometry x="573" y="485" width="77" height="30" as="geometry" />
        </mxCell>
        <mxCell id="8Lsn2s09rfW-6HnAJDic-11" value="" style="endArrow=classic;html=1;rounded=0;exitX=0;exitY=0.75;exitDx=0;exitDy=0;entryX=0.5;entryY=1;entryDx=0;entryDy=0;" parent="1" source="hiG2ZZ0SuF2o6-wS-57L-12" target="hiG2ZZ0SuF2o6-wS-57L-13" edge="1">
          <mxGeometry width="50" height="50" relative="1" as="geometry">
            <mxPoint x="645" y="290" as="sourcePoint" />
            <mxPoint x="740" y="400" as="targetPoint" />
            <Array as="points">
              <mxPoint x="550" y="515" />
            </Array>
          </mxGeometry>
        </mxCell>
        <mxCell id="8Lsn2s09rfW-6HnAJDic-12" value="TM PUS 1 Packets" style="text;html=1;strokeColor=none;fillColor=none;align=center;verticalAlign=middle;whiteSpace=wrap;rounded=0;" parent="1" vertex="1">
          <mxGeometry x="530" y="515" width="120" height="30" as="geometry" />
        </mxCell>
        <mxCell id="8Lsn2s09rfW-6HnAJDic-13" value="" style="endArrow=classic;html=1;rounded=0;exitX=0.25;exitY=1;exitDx=0;exitDy=0;entryX=0.25;entryY=1;entryDx=0;entryDy=0;" parent="1" source="hiG2ZZ0SuF2o6-wS-57L-13" target="hiG2ZZ0SuF2o6-wS-57L-12" edge="1">
          <mxGeometry width="50" height="50" relative="1" as="geometry">
            <mxPoint x="660" y="525" as="sourcePoint" />
            <mxPoint x="560" y="470" as="targetPoint" />
            <Array as="points">
              <mxPoint x="495" y="560" />
              <mxPoint x="705" y="560" />
            </Array>
          </mxGeometry>
        </mxCell>
        <mxCell id="8Lsn2s09rfW-6HnAJDic-14" value="TC PUS stage updates" style="text;html=1;strokeColor=none;fillColor=none;align=center;verticalAlign=middle;whiteSpace=wrap;rounded=0;" parent="1" vertex="1">
          <mxGeometry x="550" y="560" width="160" height="30" as="geometry" />
        </mxCell>
        <mxCell id="8Lsn2s09rfW-6HnAJDic-16" value="" style="endArrow=classic;html=1;rounded=0;entryX=0.343;entryY=-0.023;entryDx=0;entryDy=0;entryPerimeter=0;exitX=0.25;exitY=1;exitDx=0;exitDy=0;" parent="1" source="hiG2ZZ0SuF2o6-wS-57L-4" target="hiG2ZZ0SuF2o6-wS-57L-7" edge="1">
          <mxGeometry width="50" height="50" relative="1" as="geometry">
            <mxPoint x="943" y="370" as="sourcePoint" />
            <mxPoint x="943" y="289" as="targetPoint" />
            <Array as="points">
              <mxPoint x="965" y="380" />
              <mxPoint x="980" y="380" />
              <mxPoint x="980" y="400" />
              <mxPoint x="965" y="400" />
            </Array>
          </mxGeometry>
        </mxCell>
        <mxCell id="8Lsn2s09rfW-6HnAJDic-17" value="Encoded TC" style="text;html=1;strokeColor=none;fillColor=none;align=center;verticalAlign=middle;whiteSpace=wrap;rounded=0;" parent="1" vertex="1">
          <mxGeometry x="840" y="440" width="77" height="30" as="geometry" />
        </mxCell>
        <mxCell id="8Lsn2s09rfW-6HnAJDic-18" value="" style="endArrow=classic;html=1;rounded=0;exitX=0.138;exitY=0.995;exitDx=0;exitDy=0;exitPerimeter=0;" parent="1" edge="1">
          <mxGeometry width="50" height="50" relative="1" as="geometry">
            <mxPoint x="920" y="420" as="sourcePoint" />
            <mxPoint x="920" y="470" as="targetPoint" />
          </mxGeometry>
        </mxCell>
        <mxCell id="8Lsn2s09rfW-6HnAJDic-19" value="CLTU" style="text;html=1;strokeColor=none;fillColor=none;align=center;verticalAlign=middle;whiteSpace=wrap;rounded=0;" parent="1" vertex="1">
          <mxGeometry x="990" y="540" width="107" height="30" as="geometry" />
        </mxCell>
        <mxCell id="8Lsn2s09rfW-6HnAJDic-20" value="" style="endArrow=classic;html=1;rounded=0;exitX=0.57;exitY=0.981;exitDx=0;exitDy=0;exitPerimeter=0;entryX=0.25;entryY=0;entryDx=0;entryDy=0;" parent="1" source="hiG2ZZ0SuF2o6-wS-57L-7" target="hiG2ZZ0SuF2o6-wS-57L-9" edge="1">
          <mxGeometry width="50" height="50" relative="1" as="geometry">
            <mxPoint x="930" y="430" as="sourcePoint" />
            <mxPoint x="930" y="480" as="targetPoint" />
          </mxGeometry>
        </mxCell>
        <mxCell id="8Lsn2s09rfW-6HnAJDic-21" value="CLTU" style="text;html=1;strokeColor=none;fillColor=none;align=center;verticalAlign=middle;whiteSpace=wrap;rounded=0;" parent="1" vertex="1">
          <mxGeometry x="1180" y="570" width="60" height="30" as="geometry" />
        </mxCell>
        <mxCell id="8Lsn2s09rfW-6HnAJDic-22" value="" style="ellipse;whiteSpace=wrap;html=1;aspect=fixed;fillColor=#7EA6E0;strokeColor=default;strokeWidth=3;" parent="1" vertex="1">
          <mxGeometry x="1207" y="375" width="30" height="30" as="geometry" />
        </mxCell>
        <mxCell id="8Lsn2s09rfW-6HnAJDic-23" value="" style="endArrow=classic;html=1;rounded=0;entryX=0;entryY=0.5;entryDx=0;entryDy=0;exitX=1;exitY=0.5;exitDx=0;exitDy=0;" parent="1" source="hiG2ZZ0SuF2o6-wS-57L-6" target="8Lsn2s09rfW-6HnAJDic-22" edge="1">
          <mxGeometry width="50" height="50" relative="1" as="geometry">
            <mxPoint x="975" y="290" as="sourcePoint" />
            <mxPoint x="976" y="479" as="targetPoint" />
          </mxGeometry>
        </mxCell>
        <mxCell id="8Lsn2s09rfW-6HnAJDic-24" value="TC Packet Connector" style="text;html=1;strokeColor=none;fillColor=none;align=center;verticalAlign=middle;whiteSpace=wrap;rounded=0;fontSize=16;fontStyle=1" parent="1" vertex="1">
          <mxGeometry x="1250" y="375" width="107" height="30" as="geometry" />
        </mxCell>
        <mxCell id="8Lsn2s09rfW-6HnAJDic-25" value="Encoded TC" style="text;html=1;strokeColor=none;fillColor=none;align=center;verticalAlign=middle;whiteSpace=wrap;rounded=0;" parent="1" vertex="1">
          <mxGeometry x="1123.5" y="360" width="77" height="30" as="geometry" />
        </mxCell>
        <mxCell id="8Lsn2s09rfW-6HnAJDic-26" value="&lt;i&gt;Service&lt;/i&gt;" style="rounded=0;whiteSpace=wrap;html=1;fontStyle=1;fontSize=16;shadow=1;fillColor=#dae8fc;strokeColor=#6c8ebf;" parent="1" vertex="1">
          <mxGeometry x="710" y="570" width="220" height="60" as="geometry" />
        </mxCell>
        <mxCell id="8Lsn2s09rfW-6HnAJDic-27" value="" style="ellipse;whiteSpace=wrap;html=1;aspect=fixed;fillColor=#7EA6E0;strokeColor=default;strokeWidth=3;" parent="1" vertex="1">
          <mxGeometry x="1207" y="440" width="30" height="30" as="geometry" />
        </mxCell>
        <mxCell id="8Lsn2s09rfW-6HnAJDic-28" value="" style="ellipse;whiteSpace=wrap;html=1;aspect=fixed;fillColor=#7EA6E0;strokeColor=default;strokeWidth=3;" parent="1" vertex="1">
          <mxGeometry x="1207" y="510" width="30" height="30" as="geometry" />
        </mxCell>
        <mxCell id="8Lsn2s09rfW-6HnAJDic-29" value="" style="endArrow=classic;html=1;rounded=0;exitX=1;exitY=0.5;exitDx=0;exitDy=0;entryX=0;entryY=0.5;entryDx=0;entryDy=0;" parent="1" source="hiG2ZZ0SuF2o6-wS-57L-7" target="8Lsn2s09rfW-6HnAJDic-27" edge="1">
          <mxGeometry width="50" height="50" relative="1" as="geometry">
            <mxPoint x="645" y="290" as="sourcePoint" />
            <mxPoint x="740" y="400" as="targetPoint" />
            <Array as="points">
              <mxPoint x="1160" y="500" />
              <mxPoint x="1160" y="455" />
            </Array>
          </mxGeometry>
        </mxCell>
        <mxCell id="8Lsn2s09rfW-6HnAJDic-30" value="" style="endArrow=classic;html=1;rounded=0;entryX=0;entryY=0.5;entryDx=0;entryDy=0;" parent="1" target="8Lsn2s09rfW-6HnAJDic-28" edge="1">
          <mxGeometry width="50" height="50" relative="1" as="geometry">
            <mxPoint x="1110" y="500" as="sourcePoint" />
            <mxPoint x="1217" y="465" as="targetPoint" />
            <Array as="points">
              <mxPoint x="1160" y="500" />
              <mxPoint x="1160" y="525" />
            </Array>
          </mxGeometry>
        </mxCell>
        <mxCell id="8Lsn2s09rfW-6HnAJDic-31" value="TC Transfer Frame" style="text;html=1;strokeColor=none;fillColor=none;align=center;verticalAlign=middle;whiteSpace=wrap;rounded=0;" parent="1" vertex="1">
          <mxGeometry x="1080" y="420" width="140" height="30" as="geometry" />
        </mxCell>
        <mxCell id="8Lsn2s09rfW-6HnAJDic-32" value="" style="endArrow=classic;html=1;rounded=0;exitX=0.5;exitY=1;exitDx=0;exitDy=0;entryX=0.227;entryY=0.005;entryDx=0;entryDy=0;entryPerimeter=0;" parent="1" source="hiG2ZZ0SuF2o6-wS-57L-12" target="8Lsn2s09rfW-6HnAJDic-26" edge="1">
          <mxGeometry width="50" height="50" relative="1" as="geometry">
            <mxPoint x="770" y="430" as="sourcePoint" />
            <mxPoint x="770" y="480" as="targetPoint" />
          </mxGeometry>
        </mxCell>
        <mxCell id="8Lsn2s09rfW-6HnAJDic-33" value="" style="endArrow=classic;html=1;rounded=0;exitX=0.5;exitY=1;exitDx=0;exitDy=0;entryX=0.227;entryY=0.005;entryDx=0;entryDy=0;entryPerimeter=0;" parent="1" edge="1">
          <mxGeometry width="50" height="50" relative="1" as="geometry">
            <mxPoint x="850" y="530" as="sourcePoint" />
            <mxPoint x="850" y="570" as="targetPoint" />
          </mxGeometry>
        </mxCell>
        <mxCell id="8Lsn2s09rfW-6HnAJDic-34" value="Encoded TC" style="text;html=1;strokeColor=none;fillColor=none;align=center;verticalAlign=middle;whiteSpace=wrap;rounded=0;" parent="1" vertex="1">
          <mxGeometry x="763" y="540" width="77" height="30" as="geometry" />
        </mxCell>
        <mxCell id="8Lsn2s09rfW-6HnAJDic-35" value="TC PUS stage updates" style="text;html=1;strokeColor=none;fillColor=none;align=center;verticalAlign=middle;whiteSpace=wrap;rounded=0;" parent="1" vertex="1">
          <mxGeometry x="840" y="540" width="160" height="30" as="geometry" />
        </mxCell>
        <mxCell id="8Lsn2s09rfW-6HnAJDic-36" value="TC Frame Connector" style="text;html=1;strokeColor=none;fillColor=none;align=center;verticalAlign=middle;whiteSpace=wrap;rounded=0;fontSize=16;fontStyle=1" parent="1" vertex="1">
          <mxGeometry x="1250" y="440" width="107" height="30" as="geometry" />
        </mxCell>
        <mxCell id="8Lsn2s09rfW-6HnAJDic-37" value="CLTU Connector" style="text;html=1;strokeColor=none;fillColor=none;align=center;verticalAlign=middle;whiteSpace=wrap;rounded=0;fontSize=16;fontStyle=1" parent="1" vertex="1">
          <mxGeometry x="1250" y="510" width="107" height="30" as="geometry" />
        </mxCell>
        <mxCell id="8Lsn2s09rfW-6HnAJDic-38" value="CLTU" style="text;html=1;strokeColor=none;fillColor=none;align=center;verticalAlign=middle;whiteSpace=wrap;rounded=0;" parent="1" vertex="1">
          <mxGeometry x="1130" y="530" width="107" height="30" as="geometry" />
        </mxCell>
        <mxCell id="jLjFddeTjTIQ5n93J0dX-3" value="" style="triangle;whiteSpace=wrap;html=1;rotation=-90;" parent="1" vertex="1">
          <mxGeometry x="740" y="365" width="10" height="10" as="geometry" />
        </mxCell>
        <mxCell id="jLjFddeTjTIQ5n93J0dX-4" value="" style="triangle;whiteSpace=wrap;html=1;rotation=-90;" parent="1" vertex="1">
          <mxGeometry x="450" y="405" width="10" height="10" as="geometry" />
        </mxCell>
        <mxCell id="jLjFddeTjTIQ5n93J0dX-5" value="" style="triangle;whiteSpace=wrap;html=1;rotation=-90;" parent="1" vertex="1">
          <mxGeometry x="900" y="475" width="10" height="10" as="geometry" />
        </mxCell>
        <mxCell id="jLjFddeTjTIQ5n93J0dX-6" value="" style="triangle;whiteSpace=wrap;html=1;rotation=-90;" parent="1" vertex="1">
          <mxGeometry x="970" y="575" width="10" height="10" as="geometry" />
        </mxCell>
      </root>
    </mxGraphModel>
  </diagram>
  <diagram id="eOen8I4liqPMEDZ8dFp6" name="Spacecraft Driver - Telecommand (time-tagged)">
    <mxGraphModel dx="1434" dy="844" grid="1" gridSize="10" guides="1" tooltips="1" connect="1" arrows="1" fold="1" page="1" pageScale="1" pageWidth="850" pageHeight="1100" math="0" shadow="0">
      <root>
        <mxCell id="0" />
        <mxCell id="1" parent="0" />
        <mxCell id="ZyAFVMW3eNxbunGuJBNC-1" value="&lt;b style=&quot;font-size: 16px;&quot;&gt;&amp;nbsp; &amp;nbsp;ReatMetric &lt;br&gt;&amp;nbsp; &amp;nbsp;Core&lt;/b&gt;" style="rounded=1;whiteSpace=wrap;html=1;align=left;labelPosition=center;verticalLabelPosition=middle;verticalAlign=top;arcSize=7;fontSize=16;shadow=1;" parent="1" vertex="1">
          <mxGeometry x="430" y="110" width="820" height="200" as="geometry" />
        </mxCell>
        <mxCell id="ZyAFVMW3eNxbunGuJBNC-2" value="Archive" style="rounded=0;whiteSpace=wrap;html=1;fontStyle=1;fontSize=16;shadow=1;fillColor=#dae8fc;strokeColor=#6c8ebf;" parent="1" vertex="1">
          <mxGeometry x="730" y="130" width="220" height="60" as="geometry" />
        </mxCell>
        <mxCell id="ZyAFVMW3eNxbunGuJBNC-3" value="Processing Model" style="rounded=0;whiteSpace=wrap;html=1;fontStyle=1;fontSize=16;shadow=1;fillColor=#dae8fc;strokeColor=#6c8ebf;" parent="1" vertex="1">
          <mxGeometry x="470" y="220" width="220" height="60" as="geometry" />
        </mxCell>
        <mxCell id="ZyAFVMW3eNxbunGuJBNC-4" value="Raw Data Broker" style="rounded=0;whiteSpace=wrap;html=1;fontStyle=1;fontSize=16;shadow=1;fillColor=#dae8fc;strokeColor=#6c8ebf;" parent="1" vertex="1">
          <mxGeometry x="910" y="220" width="220" height="60" as="geometry" />
        </mxCell>
        <mxCell id="ZyAFVMW3eNxbunGuJBNC-5" value="&lt;b style=&quot;font-size: 16px;&quot;&gt;&amp;nbsp; &amp;nbsp;Spacecraft &lt;br&gt;&amp;nbsp; &amp;nbsp;Driver&lt;/b&gt;" style="rounded=1;whiteSpace=wrap;html=1;align=left;labelPosition=center;verticalLabelPosition=middle;verticalAlign=top;arcSize=4;fontSize=16;shadow=1;" parent="1" vertex="1">
          <mxGeometry x="430" y="320" width="820" height="340" as="geometry" />
        </mxCell>
        <mxCell id="ZyAFVMW3eNxbunGuJBNC-6" value="TC Packet Processor" style="rounded=0;whiteSpace=wrap;html=1;fontStyle=1;fontSize=16;shadow=1;fillColor=#dae8fc;strokeColor=#6c8ebf;" parent="1" vertex="1">
          <mxGeometry x="730" y="360" width="220" height="60" as="geometry" />
        </mxCell>
        <mxCell id="ZyAFVMW3eNxbunGuJBNC-9" value="Service Broker" style="rounded=0;whiteSpace=wrap;html=1;fontStyle=1;fontSize=16;shadow=1;fillColor=#dae8fc;strokeColor=#6c8ebf;" parent="1" vertex="1">
          <mxGeometry x="650" y="470" width="220" height="60" as="geometry" />
        </mxCell>
        <mxCell id="ZyAFVMW3eNxbunGuJBNC-10" value="&lt;i&gt;Onboard Operations Scheduling&lt;/i&gt;" style="rounded=0;whiteSpace=wrap;html=1;fontStyle=1;fontSize=16;shadow=1;fillColor=#dae8fc;strokeColor=#6c8ebf;" parent="1" vertex="1">
          <mxGeometry x="440" y="400" width="220" height="60" as="geometry" />
        </mxCell>
        <mxCell id="ZyAFVMW3eNxbunGuJBNC-11" value="" style="endArrow=classic;html=1;rounded=0;exitX=0.5;exitY=0;exitDx=0;exitDy=0;entryX=0;entryY=0.5;entryDx=0;entryDy=0;" parent="1" source="ZyAFVMW3eNxbunGuJBNC-3" target="ZyAFVMW3eNxbunGuJBNC-2" edge="1">
          <mxGeometry width="50" height="50" relative="1" as="geometry">
            <mxPoint x="830" y="410" as="sourcePoint" />
            <mxPoint x="880" y="360" as="targetPoint" />
            <Array as="points">
              <mxPoint x="580" y="160" />
            </Array>
          </mxGeometry>
        </mxCell>
        <mxCell id="ZyAFVMW3eNxbunGuJBNC-12" value="" style="endArrow=classic;html=1;rounded=0;exitX=0.5;exitY=0;exitDx=0;exitDy=0;entryX=1;entryY=0.5;entryDx=0;entryDy=0;" parent="1" source="ZyAFVMW3eNxbunGuJBNC-4" target="ZyAFVMW3eNxbunGuJBNC-2" edge="1">
          <mxGeometry width="50" height="50" relative="1" as="geometry">
            <mxPoint x="670" y="230" as="sourcePoint" />
            <mxPoint x="740" y="170" as="targetPoint" />
            <Array as="points">
              <mxPoint x="1020" y="160" />
            </Array>
          </mxGeometry>
        </mxCell>
        <mxCell id="ZyAFVMW3eNxbunGuJBNC-13" value="" style="endArrow=classic;html=1;rounded=0;entryX=0.105;entryY=0.99;entryDx=0;entryDy=0;entryPerimeter=0;" parent="1" target="ZyAFVMW3eNxbunGuJBNC-4" edge="1">
          <mxGeometry width="50" height="50" relative="1" as="geometry">
            <mxPoint x="933" y="360" as="sourcePoint" />
            <mxPoint x="880" y="360" as="targetPoint" />
          </mxGeometry>
        </mxCell>
        <mxCell id="ZyAFVMW3eNxbunGuJBNC-17" value="Encoded TC" style="text;html=1;strokeColor=none;fillColor=none;align=center;verticalAlign=middle;whiteSpace=wrap;rounded=0;" parent="1" vertex="1">
          <mxGeometry x="853" y="330" width="77" height="30" as="geometry" />
        </mxCell>
        <mxCell id="ZyAFVMW3eNxbunGuJBNC-18" value="Activity Invocation" style="text;html=1;strokeColor=none;fillColor=none;align=left;verticalAlign=middle;whiteSpace=wrap;rounded=0;" parent="1" vertex="1">
          <mxGeometry x="664" y="357" width="60" height="30" as="geometry" />
        </mxCell>
        <mxCell id="ZyAFVMW3eNxbunGuJBNC-19" value="" style="ellipse;whiteSpace=wrap;html=1;aspect=fixed;fillColor=#000000;" parent="1" vertex="1">
          <mxGeometry x="380" y="235" width="30" height="30" as="geometry" />
        </mxCell>
        <mxCell id="ZyAFVMW3eNxbunGuJBNC-20" value="" style="endArrow=classic;html=1;rounded=0;entryX=0;entryY=0.5;entryDx=0;entryDy=0;strokeColor=#000000;fillColor=#000000;strokeWidth=4;" parent="1" source="ZyAFVMW3eNxbunGuJBNC-19" target="ZyAFVMW3eNxbunGuJBNC-3" edge="1">
          <mxGeometry width="50" height="50" relative="1" as="geometry">
            <mxPoint x="-70" y="265" as="sourcePoint" />
            <mxPoint x="330" y="245" as="targetPoint" />
          </mxGeometry>
        </mxCell>
        <mxCell id="ZyAFVMW3eNxbunGuJBNC-21" value="" style="endArrow=classic;html=1;rounded=0;exitX=0.862;exitY=0.99;exitDx=0;exitDy=0;entryX=0;entryY=0.5;entryDx=0;entryDy=0;exitPerimeter=0;" parent="1" source="ZyAFVMW3eNxbunGuJBNC-3" target="ZyAFVMW3eNxbunGuJBNC-6" edge="1">
          <mxGeometry width="50" height="50" relative="1" as="geometry">
            <mxPoint x="590" y="230" as="sourcePoint" />
            <mxPoint x="740" y="170" as="targetPoint" />
            <Array as="points">
              <mxPoint x="660" y="390" />
            </Array>
          </mxGeometry>
        </mxCell>
        <mxCell id="ZyAFVMW3eNxbunGuJBNC-22" value="Activity Invocation with time-tag property" style="text;html=1;strokeColor=none;fillColor=none;align=left;verticalAlign=middle;whiteSpace=wrap;rounded=0;" parent="1" vertex="1">
          <mxGeometry x="335" y="270" width="95" height="30" as="geometry" />
        </mxCell>
        <mxCell id="ZyAFVMW3eNxbunGuJBNC-23" value="" style="endArrow=classic;html=1;rounded=0;exitX=0.138;exitY=0.995;exitDx=0;exitDy=0;exitPerimeter=0;" parent="1" source="ZyAFVMW3eNxbunGuJBNC-6" target="ZyAFVMW3eNxbunGuJBNC-9" edge="1">
          <mxGeometry width="50" height="50" relative="1" as="geometry">
            <mxPoint x="740" y="510" as="sourcePoint" />
            <mxPoint x="680" y="600" as="targetPoint" />
          </mxGeometry>
        </mxCell>
        <mxCell id="ZyAFVMW3eNxbunGuJBNC-24" value="Encoded TC" style="text;html=1;strokeColor=none;fillColor=none;align=center;verticalAlign=middle;whiteSpace=wrap;rounded=0;" parent="1" vertex="1">
          <mxGeometry x="680" y="440" width="77" height="30" as="geometry" />
        </mxCell>
        <mxCell id="ZyAFVMW3eNxbunGuJBNC-25" value="" style="endArrow=classic;html=1;rounded=0;entryX=0.75;entryY=1;entryDx=0;entryDy=0;" parent="1" target="ZyAFVMW3eNxbunGuJBNC-10" edge="1">
          <mxGeometry width="50" height="50" relative="1" as="geometry">
            <mxPoint x="650" y="490" as="sourcePoint" />
            <mxPoint x="740" y="400" as="targetPoint" />
            <Array as="points">
              <mxPoint x="605" y="490" />
            </Array>
          </mxGeometry>
        </mxCell>
        <mxCell id="ZyAFVMW3eNxbunGuJBNC-26" value="Encoded TC" style="text;html=1;strokeColor=none;fillColor=none;align=center;verticalAlign=middle;whiteSpace=wrap;rounded=0;" parent="1" vertex="1">
          <mxGeometry x="573" y="485" width="77" height="30" as="geometry" />
        </mxCell>
        <mxCell id="ZyAFVMW3eNxbunGuJBNC-27" value="" style="endArrow=classic;html=1;rounded=0;exitX=0;exitY=0.75;exitDx=0;exitDy=0;entryX=0.5;entryY=1;entryDx=0;entryDy=0;" parent="1" source="ZyAFVMW3eNxbunGuJBNC-9" target="ZyAFVMW3eNxbunGuJBNC-10" edge="1">
          <mxGeometry width="50" height="50" relative="1" as="geometry">
            <mxPoint x="645" y="290" as="sourcePoint" />
            <mxPoint x="740" y="400" as="targetPoint" />
            <Array as="points">
              <mxPoint x="550" y="515" />
            </Array>
          </mxGeometry>
        </mxCell>
        <mxCell id="ZyAFVMW3eNxbunGuJBNC-28" value="TM PUS 1 Packets for&lt;br&gt;TC 11,4" style="text;html=1;strokeColor=none;fillColor=none;align=center;verticalAlign=middle;whiteSpace=wrap;rounded=0;" parent="1" vertex="1">
          <mxGeometry x="510" y="515" width="140" height="30" as="geometry" />
        </mxCell>
        <mxCell id="ZyAFVMW3eNxbunGuJBNC-29" value="" style="endArrow=classic;html=1;rounded=0;exitX=0.25;exitY=1;exitDx=0;exitDy=0;entryX=0.25;entryY=1;entryDx=0;entryDy=0;" parent="1" source="ZyAFVMW3eNxbunGuJBNC-10" target="ZyAFVMW3eNxbunGuJBNC-9" edge="1">
          <mxGeometry width="50" height="50" relative="1" as="geometry">
            <mxPoint x="660" y="525" as="sourcePoint" />
            <mxPoint x="560" y="470" as="targetPoint" />
            <Array as="points">
              <mxPoint x="495" y="560" />
              <mxPoint x="705" y="560" />
            </Array>
          </mxGeometry>
        </mxCell>
        <mxCell id="ZyAFVMW3eNxbunGuJBNC-30" value="Inner TC availability status" style="text;html=1;strokeColor=none;fillColor=none;align=center;verticalAlign=middle;whiteSpace=wrap;rounded=0;" parent="1" vertex="1">
          <mxGeometry x="554" y="554" width="160" height="30" as="geometry" />
        </mxCell>
        <mxCell id="ZyAFVMW3eNxbunGuJBNC-41" value="&lt;i&gt;Time Correlation&lt;/i&gt;" style="rounded=0;whiteSpace=wrap;html=1;fontStyle=1;fontSize=16;shadow=1;fillColor=#dae8fc;strokeColor=#6c8ebf;" parent="1" vertex="1">
          <mxGeometry x="440" y="590" width="220" height="60" as="geometry" />
        </mxCell>
        <mxCell id="ZyAFVMW3eNxbunGuJBNC-54" value="" style="triangle;whiteSpace=wrap;html=1;rotation=-90;" parent="1" vertex="1">
          <mxGeometry x="740" y="365" width="10" height="10" as="geometry" />
        </mxCell>
        <mxCell id="ZyAFVMW3eNxbunGuJBNC-55" value="" style="triangle;whiteSpace=wrap;html=1;rotation=-90;" parent="1" vertex="1">
          <mxGeometry x="450" y="405" width="10" height="10" as="geometry" />
        </mxCell>
        <mxCell id="rp3em35wmYbSC4HhE1My-1" value="" style="endArrow=classic;html=1;rounded=0;exitX=0.105;exitY=0.004;exitDx=0;exitDy=0;exitPerimeter=0;entryX=0.101;entryY=0.998;entryDx=0;entryDy=0;entryPerimeter=0;" parent="1" source="ZyAFVMW3eNxbunGuJBNC-41" target="ZyAFVMW3eNxbunGuJBNC-10" edge="1">
          <mxGeometry width="50" height="50" relative="1" as="geometry">
            <mxPoint x="943" y="370" as="sourcePoint" />
            <mxPoint x="463" y="460" as="targetPoint" />
          </mxGeometry>
        </mxCell>
        <mxCell id="rp3em35wmYbSC4HhE1My-2" value="OBT/UTC" style="text;html=1;strokeColor=none;fillColor=none;align=center;verticalAlign=middle;whiteSpace=wrap;rounded=0;" parent="1" vertex="1">
          <mxGeometry x="464" y="564" width="60" height="30" as="geometry" />
        </mxCell>
        <mxCell id="rp3em35wmYbSC4HhE1My-3" value="" style="endArrow=classic;html=1;rounded=0;entryX=0.367;entryY=1.003;entryDx=0;entryDy=0;entryPerimeter=0;exitX=0.5;exitY=0;exitDx=0;exitDy=0;" parent="1" source="ZyAFVMW3eNxbunGuJBNC-10" target="ZyAFVMW3eNxbunGuJBNC-3" edge="1">
          <mxGeometry width="50" height="50" relative="1" as="geometry">
            <mxPoint x="943" y="370" as="sourcePoint" />
            <mxPoint x="943" y="289" as="targetPoint" />
          </mxGeometry>
        </mxCell>
        <mxCell id="rp3em35wmYbSC4HhE1My-4" value="Activity Invocation for 11,4 encapsulation" style="text;html=1;strokeColor=none;fillColor=none;align=left;verticalAlign=middle;whiteSpace=wrap;rounded=0;" parent="1" vertex="1">
          <mxGeometry x="554" y="355" width="90" height="30" as="geometry" />
        </mxCell>
      </root>
    </mxGraphModel>
  </diagram>
</mxfile>
